<svg width="960" height="1080" viewBox="0 0 960 1080" fill="none" xmlns="http://www.w3.org/2000/svg">
<g clip-path="url(#clip0_121_5)">
<rect width="960" height="1080" fill="#3F51B5"/>
<g style="mix-blend-mode:luminosity">
<path d="M482.03 545.744C487.746 535.843 498.31 529.744 509.742 529.744L922.279 529.744C933.712 529.744 944.276 535.843 949.992 545.744L1156.26 903.011C1161.98 912.912 1161.98 925.11 1156.26 935.011L949.992 1292.28C944.276 1302.18 933.712 1308.28 922.279 1308.28L509.742 1308.28C498.31 1308.28 487.746 1302.18 482.03 1292.28L275.761 935.011C270.045 925.11 270.045 912.912 275.761 903.011L482.03 545.744Z" fill="#2196F3" fill-opacity="0.5"/>
</g>
<g style="mix-blend-mode:luminosity">
<path d="M332.23 263.923L598.077 263.923L731 494.153L598.077 724.383L332.23 724.383L199.307 494.153L332.23 263.923Z" fill="#2196F3" fill-opacity="0.5"/>
</g>
<g style="mix-blend-mode:luminosity">
<path d="M727.573 152.541L880.655 152.541L957.196 285.114L880.655 417.687L727.573 417.687L651.032 285.114L727.573 152.541Z" fill="#2196F3" fill-opacity="0.5"/>
</g>
<g clip-path="url(#clip1_121_5)">
<path d="M394.062 1000.86H526.583V996.789C526.583 993.258 525.18 989.871 522.684 987.374C520.187 984.878 516.801 983.475 513.27 983.475H407.375C403.844 983.475 400.458 984.878 397.961 987.374C395.464 989.871 394.062 993.258 394.062 996.789V1000.86Z" fill="#E6E6E6"/>
<path d="M463.423 984.286L459.394 982.663C501.561 877.993 497.498 745.942 461.853 632.666C457.619 619.541 457.314 605.465 460.975 592.169C464.636 578.873 472.104 566.937 482.459 557.83C503.149 539.366 531.672 534.869 556.903 546.091C581.807 557.169 585.24 576.467 585.24 595.67H580.895C580.895 575.172 576.515 559.57 555.137 550.061C531.49 539.544 504.75 543.762 485.352 561.073C475.626 569.626 468.612 580.836 465.173 593.325C461.734 605.813 462.021 619.034 465.998 631.361C502.054 745.945 505.879 878.903 463.423 984.286Z" fill="#E6E6E6"/>
<path d="M581.981 659.761C573.583 659.761 566.774 652.952 566.774 644.553C566.774 636.154 573.583 629.345 581.981 629.345C590.38 629.345 597.189 636.154 597.189 644.553C597.189 652.952 590.38 659.761 581.981 659.761Z" fill="#E6E6E6"/>
<path d="M605.402 671.065V642.25H600.922V671.065C599.636 671.585 598.572 672.536 597.911 673.754C597.25 674.973 597.033 676.384 597.298 677.744C597.563 679.105 598.293 680.332 599.362 681.213C600.432 682.095 601.775 682.577 603.162 682.577C604.548 682.577 605.891 682.095 606.961 681.213C608.031 680.332 608.761 679.105 609.026 677.744C609.291 676.384 609.074 674.973 608.413 673.754C607.752 672.536 606.687 671.585 605.402 671.065Z" fill="#E6E6E6"/>
<path d="M627.06 620.112C627.053 613.488 624.418 607.137 619.734 602.453C615.051 597.769 608.701 595.134 602.077 595.127H560.8C554.174 595.127 547.819 597.759 543.134 602.445C538.448 607.13 535.816 613.485 535.816 620.112C535.816 626.738 538.448 633.093 543.134 637.778C547.819 642.464 554.174 645.096 560.8 645.096H602.077C608.701 645.089 615.051 642.454 619.734 637.77C624.418 633.086 627.053 626.736 627.06 620.112Z" fill="#F9A826"/>
<path d="M685.218 774.832C681.074 721.808 659.884 696.544 673.452 680.701C686.449 665.525 723.058 668.66 746.569 683.223C809.983 722.5 833.216 879.046 751.611 955.53C674.066 1028.21 527.103 1004.93 494.442 945.445C486.822 931.565 480.768 907.232 491.921 892.496C519.611 855.911 620.287 922.177 665.048 880.73C691.575 856.167 687.493 803.932 685.218 774.832Z" fill="#3F3D56"/>
<path d="M636.743 748.489C638.284 749.198 639.487 750.48 640.096 752.062C640.706 753.644 640.675 755.401 640.008 756.96C639.868 757.275 639.702 757.578 639.511 757.865L653.123 776.04L646.331 786.191L630.377 759.278C629.246 758.397 628.44 757.166 628.082 755.777C627.725 754.389 627.837 752.922 628.402 751.604C628.73 750.857 629.203 750.183 629.792 749.618C630.381 749.054 631.075 748.612 631.835 748.316C632.596 748.02 633.406 747.877 634.222 747.895C635.037 747.912 635.841 748.09 636.588 748.419C636.64 748.442 636.692 748.465 636.743 748.489Z" fill="#FFB6B6"/>
<path d="M636.754 779.826C635.864 780.616 638.334 781.591 640.948 780.052C641.696 779.607 642.015 779.422 642.099 779.54C642.31 779.834 641.083 782.002 641.41 786.818C641.612 789.693 646.386 795.097 651.806 800.366C659.135 807.493 667.657 814.368 667.657 814.368L670.649 811.973L702.022 786.818L707.316 779.489C706.831 776.595 706.103 773.747 705.139 770.976C703.812 767.139 702.234 763.394 700.416 759.764C699.441 757.789 698.441 755.906 697.483 754.175L680.675 772.698L666.589 788.213C666.589 788.213 662.488 781.607 659.311 779.809C658.906 779.55 658.445 779.392 657.967 779.347C654.756 779.195 654.563 777.447 658.286 773.64C662.009 769.833 657.311 773.388 654 772.362C650.689 771.337 654 772.362 653.302 769.799C652.605 767.236 643.318 762.092 643.318 762.092L642.931 762.436L635.914 768.631L633.905 770.404C633.905 770.404 636.099 776.422 636.704 777.691C637.309 778.96 637.637 779.027 636.754 779.826Z" fill="#F9A826"/>
<path d="M451.763 896.578L451.421 887.307L487.014 881.577L487.519 895.258L451.763 896.578Z" fill="#FFB6B6"/>
<path d="M458.224 899.369L458.562 884.526L452.217 884.76L441.973 871.038C441.467 870.36 440.758 869.862 439.949 869.616C439.139 869.369 438.273 869.388 437.475 869.67C436.678 869.951 435.991 870.48 435.515 871.179C435.04 871.878 434.8 872.711 434.831 873.557L435.482 891.189L441.87 893.997L435.637 895.415L435.883 902.063L458.224 899.369Z" fill="#2F2E41"/>
<path d="M652.086 900.187L539.349 903.046C539.349 903.046 490.665 905.858 479.243 898.427L467.198 896.906L466.545 879.212C466.545 879.212 473.911 879.267 478.145 877.293C482.38 875.32 479.437 872.906 483.475 875.28C487.512 877.654 487.086 877.939 490.208 876.848C493.329 875.757 636.483 853.937 636.483 853.937L652.086 900.187Z" fill="#2F2E41"/>
<path d="M503.529 892.509L496.973 885.946L519.168 857.535L528.844 867.223L503.529 892.509Z" fill="#FFB6B6"/>
<path d="M510.163 886.799L500.316 875.688L495.823 880.175L478.981 877.083C478.15 876.93 477.291 877.047 476.53 877.417C475.77 877.787 475.147 878.391 474.754 879.139C474.36 879.888 474.217 880.743 474.344 881.579C474.47 882.415 474.861 883.189 475.459 883.787L487.928 896.271L494.52 893.984L490.916 899.263L495.617 903.97L510.163 886.799Z" fill="#2F2E41"/>
<path d="M696.563 838.443L695.443 864.497C694.123 895.168 660.347 913.731 634.156 897.717C633.674 897.422 633.189 897.116 632.703 896.8C632.703 896.8 622.774 894.133 623.076 889.91C623.377 885.688 620.952 883.632 618.805 884.784C616.658 885.936 588.553 846.047 588.553 846.047C588.553 846.047 530.159 875.176 517.277 882.033C517.277 882.033 505.166 863.095 506.044 863.294C506.922 863.492 578.284 813.543 578.284 813.543C578.284 813.543 589.91 801.777 604.331 809.546C604.631 810.687 604.374 810.727 604.374 810.727L652.013 849.546L658.744 836.762L696.563 838.443Z" fill="#2F2E41"/>
<path d="M651.647 805.871C651.737 807.075 651.908 808.271 652.159 809.452C652.502 811.161 653.056 812.82 653.806 814.394C653.806 814.394 653.806 816.15 657.168 822.033C660.53 827.916 656.328 825.395 653.806 829.766C651.285 834.127 653.806 832.119 656.605 834.926C657.411 835.743 657.983 836.761 658.262 837.874C658.542 838.986 658.518 840.154 658.194 841.255C658.194 841.255 694.298 841.28 701.021 838.758C707.745 836.237 709.274 822.033 703.248 820.63C697.231 819.226 705.072 817.831 708.61 814.595C712.149 811.359 705.072 806.065 705.072 806.065C705.072 806.065 707.988 801.03 707.745 784.129C707.71 782.574 707.567 781.024 707.316 779.489C706.831 776.595 706.103 773.747 705.139 770.976C703.812 767.139 702.234 763.394 700.416 759.764C699.441 757.789 698.441 755.906 697.483 754.175C697.332 753.906 697.189 753.645 697.038 753.385C695.214 750.157 693.55 747.518 692.449 745.829C691.6 744.518 691.088 743.778 691.088 743.778L684.969 733.138L664.547 742.711L665.707 758.369L662.186 770.177L660.564 775.615L659.311 779.809L657.378 786.305C657.378 786.305 657.908 786.331 657.277 787.196C654.375 791.056 652.493 795.586 651.806 800.366C651.564 802.191 651.511 804.036 651.647 805.871Z" fill="#F9A826"/>
<path d="M592.669 807.559L593.053 807.435L641.933 791.694L623.921 732.6C623.562 731.423 622.941 730.343 622.104 729.441C621.267 728.54 620.237 727.839 619.09 727.394C617.944 726.948 616.711 726.769 615.485 726.869C614.259 726.969 613.071 727.346 612.012 727.972L580.776 746.427C578.304 747.887 576.422 750.168 575.461 752.874C574.5 755.579 574.521 758.537 575.518 761.229L592.669 807.559Z" fill="#2F2E41"/>
<path d="M592.471 811.315L641.744 795.448L623.732 736.354C623.374 735.177 622.752 734.097 621.916 733.195C621.079 732.293 620.048 731.593 618.902 731.148C617.755 730.702 616.522 730.523 615.296 730.623C614.07 730.723 612.883 731.1 611.824 731.726L579.096 748.066C574.18 750.97 574.295 758.487 576.578 764.655L592.471 811.315Z" fill="#F9A826"/>
<path d="M597.404 815.592C598.539 816.233 599.794 816.63 601.091 816.759C602.387 816.888 603.696 816.746 604.934 816.341L636.429 806.199C638.845 805.409 640.857 803.706 642.035 801.453C643.212 799.201 643.462 796.576 642.731 794.142L626.942 742.338C626.626 741.304 626.107 740.342 625.415 739.51C624.723 738.679 623.872 737.993 622.912 737.495C621.952 736.996 620.902 736.695 619.823 736.608C618.745 736.52 617.66 736.649 616.632 736.987L583.994 747.704C582.439 748.214 581.002 749.031 579.768 750.106C578.534 751.182 577.528 752.493 576.809 753.964C576.091 755.435 575.674 757.034 575.584 758.669C575.494 760.303 575.732 761.939 576.285 763.48L593.167 810.548C593.925 812.685 595.43 814.477 597.404 815.592Z" fill="#3F3D56"/>
<path d="M665.702 733.32C653.243 733.32 643.144 723.22 643.144 710.761C643.144 698.302 653.243 688.203 665.702 688.203C678.16 688.203 688.259 698.302 688.259 710.761C688.259 723.22 678.16 733.32 665.702 733.32Z" fill="#FFB6B6"/>
<path d="M741.981 733.659C739.911 737.672 736.517 740.845 732.374 742.641C730.721 743.394 728.982 743.944 727.197 744.279C726.692 742.278 725.884 740.365 724.801 738.608C725.162 740.589 725.162 742.618 724.801 744.599C722.081 744.821 719.344 744.482 716.761 743.601C714.224 742.738 711.923 741.295 710.04 739.388C708.158 737.481 706.745 735.161 705.916 732.613C704.119 726.634 706.054 720.247 706.207 714.005C706.364 707.763 703.4 700.297 697.203 699.525C692.484 698.936 693.068 699.393 689.677 702.727C694.42 707.996 682.857 731.333 676.653 730.302C673.145 729.719 670.564 726.933 669.87 727.03C666.317 735.731 677.004 748.07 668.528 752.121L669.157 751.289C673.594 743.96 660.466 731.58 664.902 724.25C666.139 722.2 667.425 719.796 666.66 717.528C665.934 715.371 662.256 714.689 661.48 716.652C662.741 712.153 659.219 706.872 654.542 706.413C650.387 706.003 650.626 707.188 646.664 708.268C646.158 706.561 645.429 704.929 644.495 703.413C644.811 705.143 644.85 706.911 644.61 708.653C643.181 708.823 641.736 708.517 640.499 707.782C636.84 705.589 636.731 699.927 639.244 696.481C641.762 693.034 645.98 691.333 650.049 690.045C650.086 681.44 673.24 677.32 677.499 685.321C677.937 678.843 685.362 674.479 691.759 675.579C698.155 676.68 703.202 681.809 706.278 687.526C709.354 693.239 710.881 699.635 713.133 705.72C715.385 711.805 718.604 717.873 723.996 721.483C729.388 725.089 737.401 725.416 741.903 720.743C742.929 722.738 743.471 724.948 743.485 727.192C743.499 729.436 742.983 731.652 741.981 733.659Z" fill="#2F2E41"/>
<path d="M718.835 836.819C718.368 836.446 717.862 836.125 717.325 835.863C708.691 831.565 681.841 820.41 660.846 820.868C620.45 821.749 569.041 866.332 581.006 896.272C590.11 919.053 635.371 932.014 668.41 921.648C714.695 907.126 732.964 848.085 718.835 836.819Z" fill="#3F3D56"/>
<path d="M886.534 1000.94C899.734 998.451 911.418 938.982 885.448 909.693C876.55 899.658 865.452 895.291 850.688 891.226C765.715 867.832 700.905 890.128 692.196 895.572C683.506 901.003 668.271 982.84 687.752 994.424C698.713 1000.94 720.438 1004.2 731.202 996.596C747.04 985.407 720.455 956.385 732.288 936.85C745.716 914.682 816.424 907.215 851.873 929.246C889.694 952.751 811.682 1015.06 886.534 1000.94Z" fill="#F2F2F2"/>
<path d="M798.283 899.831H848.711C861.159 887.9 870.06 876.402 862.934 866.858C862.934 864.114 861.844 861.483 859.904 859.543C857.964 857.603 855.333 856.513 852.59 856.513H794.404C791.661 856.513 789.03 857.603 787.09 859.543C785.15 861.483 784.06 864.114 784.06 866.858C781.347 877.733 786.194 888.726 798.283 899.831Z" fill="#CCCCCC"/>
<path d="M807.34 843.49C807.818 843.512 808.292 843.386 808.696 843.13C809.101 842.874 809.417 842.5 809.602 842.058C809.787 841.616 809.831 841.128 809.729 840.66C809.627 840.192 809.384 839.766 809.032 839.441L808.872 838.805C808.894 838.754 808.915 838.703 808.936 838.652C809.418 837.513 810.226 836.543 811.258 835.862C812.29 835.181 813.5 834.82 814.736 834.824C815.972 834.829 817.18 835.199 818.207 835.888C819.234 836.576 820.034 837.553 820.508 838.695C822.4 843.253 824.81 847.82 825.403 852.639C825.664 854.77 825.554 856.929 825.077 859.022C829.522 849.325 831.831 838.786 831.845 828.118C831.846 825.442 831.698 822.767 831.4 820.107C831.154 817.926 830.813 815.761 830.376 813.611C827.994 801.946 822.878 791.013 815.45 781.71C811.855 779.748 808.947 776.731 807.12 773.066C806.457 771.749 805.989 770.342 805.73 768.891C806.136 768.944 807.259 762.767 806.953 762.388C807.518 761.531 808.53 761.104 809.147 760.267C812.217 756.105 816.447 756.832 818.655 762.488C823.372 764.869 823.417 768.817 820.523 772.614C818.682 775.03 818.429 778.299 816.813 780.885C816.979 781.098 817.152 781.304 817.318 781.517C820.357 785.424 823.005 789.62 825.225 794.043C824.685 789.088 825.329 784.074 827.105 779.416C828.905 775.075 832.277 771.418 835.248 767.665C838.816 763.157 846.132 765.125 846.76 770.839C846.766 770.895 846.772 770.95 846.778 771.005C846.337 771.254 845.905 771.518 845.482 771.798C844.952 772.152 844.54 772.659 844.302 773.252C844.064 773.844 844.011 774.495 844.149 775.118C844.287 775.741 844.61 776.308 845.076 776.745C845.542 777.181 846.129 777.467 846.76 777.564L846.824 777.574C846.667 779.164 846.39 780.74 845.993 782.288C849.804 797.025 841.577 802.392 829.831 802.634C829.572 802.767 829.319 802.9 829.06 803.026C831.29 809.347 832.689 815.931 833.222 822.613C833.523 826.555 833.505 830.515 833.168 834.455L833.188 834.315C834.039 829.935 836.376 825.982 839.804 823.125C844.895 818.943 852.087 817.403 857.579 814.041C858.163 813.667 858.841 813.467 859.535 813.465C860.229 813.463 860.908 813.66 861.494 814.032C862.079 814.404 862.546 814.935 862.84 815.564C863.133 816.193 863.24 816.892 863.149 817.58C863.142 817.629 863.134 817.677 863.127 817.726C862.308 818.06 861.511 818.444 860.74 818.877C860.299 819.126 859.867 819.39 859.444 819.669C858.913 820.024 858.502 820.531 858.264 821.123C858.026 821.716 857.973 822.366 858.111 822.989C858.249 823.613 858.572 824.18 859.038 824.616C859.504 825.053 860.091 825.338 860.722 825.436L860.786 825.446C860.833 825.452 860.873 825.459 860.919 825.466C859.52 828.806 857.557 831.88 855.115 834.554C852.733 847.419 842.499 848.64 831.553 844.893H831.546C830.345 850.113 828.605 855.193 826.354 860.053H807.804C807.738 859.847 807.678 859.634 807.618 859.428C809.335 859.536 811.059 859.433 812.751 859.122C811.375 857.433 809.998 855.731 808.622 854.042C808.591 854.011 808.562 853.977 808.536 853.942C807.838 853.078 807.133 852.22 806.435 851.356L806.434 851.355C806.397 848.706 806.702 846.062 807.34 843.49Z" fill="#CCCCCC"/>
<path d="M744.071 897.129C743.764 898.025 743.18 898.8 742.404 899.343C741.628 899.887 740.7 900.17 739.753 900.153L721.254 899.677C720.3 899.659 719.378 899.332 718.625 898.746C717.872 898.159 717.329 897.345 717.078 896.425L714.46 868.431C713.531 868.851 712.52 869.059 711.5 869.039C709.712 868.994 708.014 868.24 706.781 866.944C705.548 865.647 704.88 863.914 704.925 862.125C704.97 860.336 705.724 858.638 707.02 857.405C708.317 856.172 710.05 855.504 711.839 855.549C712.246 855.548 712.653 855.59 713.051 855.675C713.485 855.207 714.011 854.834 714.598 854.581C715.184 854.328 715.817 854.2 716.455 854.207L744.911 854.942C745.147 854.95 745.382 854.98 745.613 855.029C746.237 855.145 746.829 855.394 747.349 855.758C747.869 856.122 748.305 856.594 748.627 857.141C748.95 857.687 749.151 858.297 749.218 858.928C749.285 859.56 749.216 860.198 749.016 860.8L744.071 897.129ZM713.923 866.53L712.06 859.859C711.848 859.088 711.843 858.275 712.046 857.502C711.955 857.502 711.876 857.459 711.785 857.459C710.508 857.433 709.273 857.914 708.35 858.797C707.427 859.681 706.892 860.894 706.862 862.171C706.832 863.448 707.31 864.685 708.191 865.61C709.071 866.536 710.282 867.074 711.559 867.108C712.385 867.134 713.202 866.934 713.923 866.53Z" fill="#CCCCCC"/>
<path d="M745.613 855.029C745.007 858.495 738.191 860.932 729.995 860.509C722.458 860.161 716.296 857.515 715.167 854.378C715.585 854.255 716.019 854.197 716.455 854.207L744.911 854.941C745.147 854.95 745.382 854.979 745.613 855.029Z" fill="white"/>
<path d="M959.009 1002.25L335.991 1002.51C335.728 1002.51 335.476 1002.41 335.29 1002.22C335.104 1002.03 335 1001.78 335 1001.52C335 1001.26 335.104 1001 335.29 1000.82C335.476 1000.63 335.728 1000.53 335.991 1000.53L959.009 1000.27C959.272 1000.27 959.524 1000.38 959.71 1000.56C959.896 1000.75 960 1001 960 1001.26C960 1001.53 959.896 1001.78 959.71 1001.96C959.524 1002.15 959.272 1002.25 959.009 1002.25Z" fill="#CACACA"/>
<path d="M609.578 780.825C611.272 780.887 612.875 781.607 614.046 782.833C615.217 784.059 615.864 785.694 615.848 787.389C615.84 787.733 615.803 788.077 615.738 788.415L635.29 799.959L632.923 811.942L607.848 793.232C606.466 792.853 605.248 792.027 604.385 790.883C603.521 789.739 603.06 788.341 603.075 786.907C603.091 786.092 603.267 785.287 603.594 784.54C603.921 783.793 604.392 783.117 604.98 782.552C605.568 781.986 606.262 781.542 607.021 781.245C607.781 780.948 608.592 780.803 609.407 780.819C609.464 780.82 609.521 780.822 609.578 780.825Z" fill="#FFB6B6"/>
<path d="M625.595 808.345C626.118 807.645 626.343 807.351 626.461 807.432C626.768 807.616 626.473 810.092 628.626 814.407C631.658 820.469 663.444 829.753 663.444 829.753L667.357 822.588L684.571 791.101L690.505 765.864C690.712 764.984 690.813 764.082 690.805 763.178C685.515 759.455 679.897 756.221 674.021 753.516C671.672 754.848 669.882 756.981 668.978 759.524L657.128 792.75L652.4 806.016C652.4 806.016 644.059 800.051 641.034 801.146C638.013 802.248 637.155 800.703 639.129 795.758C641.104 790.813 638.14 795.903 634.691 796.227C631.235 796.555 634.691 796.227 633.059 794.128C631.427 792.03 620.873 790.849 620.873 790.849L620.649 791.318L616.559 799.731L615.389 802.148C615.389 802.148 619.724 806.852 620.77 807.79C621.821 808.734 622.146 808.669 621.631 809.745C621.124 810.816 623.778 810.767 625.595 808.345Z" fill="#F9A826"/>
</g>
<g style="mix-blend-mode:luminosity">
<path d="M792.212 452.866L825.943 452.866L842.809 482.078L825.943 511.29L792.212 511.29L775.346 482.078L792.212 452.866Z" fill="#2196F3" fill-opacity="0.5"/>
</g>
</g>
<defs>
<clipPath id="clip0_121_5">
<rect width="960" height="1080" fill="white"/>
</clipPath>
<clipPath id="clip1_121_5">
<rect width="625" height="463" fill="white" transform="matrix(-1 0 0 1 960 540)"/>
</clipPath>
</defs>
</svg>
