<svg width="625" height="463" viewBox="0 0 625 463" fill="none" xmlns="http://www.w3.org/2000/svg">
<g clip-path="url(#clip0_123_118)">
<path d="M59.0615 460.855H191.583V456.789C191.583 453.258 190.18 449.871 187.684 447.374C185.187 444.878 181.801 443.475 178.27 443.475H72.3748C68.8439 443.475 65.4576 444.878 62.9609 447.374C60.4642 449.871 59.0615 453.258 59.0615 456.789V460.855Z" fill="#E6E6E6"/>
<path d="M128.423 444.286L124.394 442.663C166.561 337.993 162.498 205.942 126.853 92.6657C122.619 79.5411 122.314 65.4649 125.975 52.1689C129.636 38.8729 137.104 26.9372 147.459 17.8302C168.149 -0.633525 196.672 -5.13144 221.903 6.09052C246.807 17.1693 250.24 36.4668 250.24 55.6704H245.895C245.895 35.1715 241.515 19.5705 220.137 10.0607C196.49 -0.456366 169.75 3.76202 150.352 21.0726C140.626 29.6261 133.612 40.8365 130.173 53.3246C126.734 65.8127 127.021 79.0337 130.998 91.3609C167.054 205.945 170.879 338.903 128.423 444.286Z" fill="#E6E6E6"/>
<path d="M246.981 119.761C238.583 119.761 231.774 112.952 231.774 104.553C231.774 96.1541 238.583 89.3452 246.981 89.3452C255.38 89.3452 262.189 96.1541 262.189 104.553C262.189 112.952 255.38 119.761 246.981 119.761Z" fill="#E6E6E6"/>
<path d="M270.402 131.065V102.25H265.922V131.065C264.636 131.585 263.572 132.536 262.911 133.754C262.25 134.973 262.033 136.384 262.298 137.744C262.563 139.105 263.293 140.332 264.362 141.213C265.432 142.095 266.775 142.577 268.162 142.577C269.548 142.577 270.891 142.095 271.961 141.213C273.031 140.332 273.761 139.105 274.026 137.744C274.291 136.384 274.074 134.973 273.413 133.754C272.752 132.536 271.687 131.585 270.402 131.065Z" fill="#E6E6E6"/>
<path d="M292.06 80.1116C292.053 73.4875 289.418 67.137 284.734 62.4531C280.051 57.7692 273.701 55.1345 267.077 55.127H225.8C219.174 55.127 212.819 57.7593 208.134 62.4448C203.448 67.1303 200.816 73.4852 200.816 80.1116C200.816 86.7379 203.448 93.0928 208.134 97.7784C212.819 102.464 219.174 105.096 225.8 105.096H267.077C273.701 105.089 280.051 102.454 284.734 97.77C289.418 93.0862 292.053 86.7356 292.06 80.1116Z" fill="#F9A826"/>
<path d="M350.218 234.832C346.074 181.808 324.884 156.544 338.452 140.701C351.449 125.525 388.058 128.66 411.569 143.223C474.983 182.5 498.216 339.046 416.611 415.53C339.066 488.21 192.103 464.932 159.442 405.445C151.822 391.565 145.768 367.232 156.921 352.496C184.611 315.911 285.287 382.177 330.048 340.73C356.575 316.167 352.493 263.932 350.218 234.832Z" fill="#3F3D56"/>
<path d="M301.743 208.489C303.284 209.198 304.487 210.48 305.096 212.062C305.706 213.644 305.675 215.401 305.008 216.96C304.868 217.275 304.702 217.578 304.511 217.865L318.123 236.04L311.331 246.191L295.377 219.278C294.246 218.397 293.44 217.166 293.082 215.777C292.725 214.389 292.837 212.922 293.402 211.604C293.73 210.857 294.203 210.183 294.792 209.618C295.381 209.054 296.075 208.612 296.835 208.316C297.596 208.02 298.406 207.877 299.222 207.895C300.037 207.912 300.841 208.09 301.588 208.419C301.64 208.442 301.692 208.465 301.743 208.489Z" fill="#FFB6B6"/>
<path d="M301.754 239.826C300.864 240.616 303.334 241.591 305.948 240.052C306.696 239.607 307.015 239.422 307.099 239.54C307.31 239.834 306.083 242.002 306.41 246.818C306.612 249.693 311.386 255.097 316.806 260.366C324.135 267.493 332.657 274.368 332.657 274.368L335.649 271.973L367.022 246.818L372.316 239.489C371.831 236.595 371.103 233.747 370.139 230.976C368.812 227.139 367.234 223.394 365.416 219.764C364.441 217.789 363.441 215.906 362.483 214.175L345.675 232.698L331.589 248.213C331.589 248.213 327.488 241.607 324.311 239.809C323.906 239.55 323.445 239.392 322.967 239.347C319.756 239.195 319.563 237.447 323.286 233.64C327.009 229.833 322.311 233.388 319 232.362C315.689 231.337 319 232.362 318.302 229.799C317.605 227.236 308.318 222.092 308.318 222.092L307.931 222.436L300.914 228.631L298.905 230.404C298.905 230.404 301.099 236.422 301.704 237.691C302.309 238.96 302.637 239.027 301.754 239.826Z" fill="#F9A826"/>
<path d="M116.763 356.578L116.421 347.307L152.014 341.577L152.519 355.258L116.763 356.578Z" fill="#FFB6B6"/>
<path d="M123.224 359.369L123.562 344.526L117.217 344.76L106.973 331.038C106.467 330.36 105.758 329.862 104.949 329.616C104.139 329.369 103.273 329.388 102.475 329.67C101.678 329.951 100.991 330.48 100.515 331.179C100.04 331.878 99.7998 332.711 99.831 333.557L100.482 351.189L106.87 353.997L100.637 355.415L100.883 362.063L123.224 359.369Z" fill="#2F2E41"/>
<path d="M317.086 360.187L204.349 363.046C204.349 363.046 155.665 365.858 144.243 358.427L132.198 356.906L131.545 339.212C131.545 339.212 138.911 339.267 143.145 337.293C147.38 335.32 144.437 332.906 148.475 335.28C152.512 337.654 152.086 337.939 155.208 336.848C158.329 335.757 301.483 313.937 301.483 313.937L317.086 360.187Z" fill="#2F2E41"/>
<path d="M168.529 352.509L161.973 345.946L184.168 317.535L193.844 327.223L168.529 352.509Z" fill="#FFB6B6"/>
<path d="M175.163 346.799L165.316 335.688L160.823 340.175L143.981 337.083C143.15 336.93 142.291 337.047 141.53 337.417C140.77 337.787 140.147 338.391 139.754 339.139C139.36 339.888 139.217 340.743 139.344 341.579C139.47 342.415 139.861 343.189 140.459 343.787L152.928 356.271L159.52 353.984L155.916 359.263L160.617 363.97L175.163 346.799Z" fill="#2F2E41"/>
<path d="M361.563 298.443L360.443 324.497C359.123 355.168 325.347 373.731 299.156 357.717C298.674 357.422 298.189 357.116 297.703 356.8C297.703 356.8 287.774 354.133 288.076 349.91C288.377 345.688 285.952 343.632 283.805 344.784C281.658 345.936 253.553 306.047 253.553 306.047C253.553 306.047 195.159 335.176 182.277 342.033C182.277 342.033 170.166 323.095 171.044 323.294C171.922 323.492 243.284 273.543 243.284 273.543C243.284 273.543 254.91 261.777 269.331 269.546C269.631 270.687 269.374 270.727 269.374 270.727L317.013 309.546L323.744 296.762L361.563 298.443Z" fill="#2F2E41"/>
<path d="M316.647 265.871C316.737 267.075 316.908 268.271 317.159 269.452C317.502 271.161 318.056 272.82 318.806 274.394C318.806 274.394 318.806 276.15 322.168 282.033C325.53 287.916 321.328 285.395 318.806 289.766C316.285 294.127 318.806 292.119 321.605 294.926C322.411 295.743 322.983 296.761 323.262 297.874C323.542 298.986 323.518 300.154 323.194 301.255C323.194 301.255 359.298 301.28 366.021 298.758C372.745 296.237 374.274 282.033 368.248 280.63C362.231 279.226 370.072 277.831 373.61 274.595C377.149 271.359 370.072 266.065 370.072 266.065C370.072 266.065 372.988 261.03 372.745 244.129C372.71 242.574 372.567 241.024 372.316 239.489C371.831 236.595 371.103 233.747 370.139 230.976C368.812 227.139 367.234 223.394 365.416 219.764C364.441 217.789 363.441 215.906 362.483 214.175C362.332 213.906 362.189 213.645 362.038 213.385C360.214 210.157 358.55 207.518 357.449 205.829C356.6 204.518 356.088 203.778 356.088 203.778L349.969 193.138L329.547 202.711L330.707 218.369L327.186 230.177L325.564 235.615L324.311 239.809L322.378 246.305C322.378 246.305 322.908 246.331 322.277 247.196C319.375 251.056 317.493 255.586 316.806 260.366C316.564 262.191 316.511 264.036 316.647 265.871Z" fill="#F9A826"/>
<path d="M257.669 267.559L258.053 267.435L306.933 251.694L288.921 192.6C288.562 191.423 287.941 190.343 287.104 189.441C286.267 188.54 285.237 187.839 284.09 187.394C282.944 186.948 281.711 186.769 280.485 186.869C279.259 186.969 278.071 187.346 277.012 187.972L245.776 206.427C243.304 207.887 241.422 210.168 240.461 212.874C239.5 215.579 239.521 218.537 240.518 221.229L257.669 267.559Z" fill="#2F2E41"/>
<path d="M257.471 271.315L306.744 255.448L288.732 196.354C288.374 195.177 287.752 194.097 286.916 193.195C286.079 192.293 285.048 191.593 283.902 191.148C282.755 190.702 281.522 190.523 280.296 190.623C279.07 190.723 277.883 191.1 276.824 191.726L244.096 208.066C239.18 210.97 239.295 218.487 241.578 224.655L257.471 271.315Z" fill="#F9A826"/>
<path d="M262.404 275.592C263.539 276.233 264.794 276.63 266.091 276.759C267.387 276.888 268.696 276.746 269.934 276.341L301.429 266.199C303.845 265.409 305.857 263.706 307.035 261.453C308.212 259.201 308.462 256.576 307.731 254.142L291.942 202.338C291.626 201.304 291.107 200.342 290.415 199.51C289.723 198.679 288.872 197.993 287.912 197.495C286.952 196.996 285.902 196.695 284.823 196.608C283.745 196.52 282.66 196.649 281.632 196.987L248.994 207.704C247.439 208.214 246.002 209.031 244.768 210.106C243.534 211.182 242.528 212.493 241.809 213.964C241.091 215.435 240.674 217.034 240.584 218.669C240.494 220.303 240.732 221.939 241.285 223.48L258.167 270.548C258.925 272.685 260.43 274.477 262.404 275.592Z" fill="#3F3D56"/>
<path d="M330.702 193.32C318.243 193.32 308.144 183.22 308.144 170.761C308.144 158.302 318.243 148.203 330.702 148.203C343.16 148.203 353.259 158.302 353.259 170.761C353.259 183.22 343.16 193.32 330.702 193.32Z" fill="#FFB6B6"/>
<path d="M406.981 193.659C404.911 197.672 401.517 200.845 397.374 202.641C395.721 203.394 393.982 203.944 392.197 204.279C391.692 202.278 390.884 200.365 389.801 198.608C390.162 200.589 390.162 202.618 389.801 204.599C387.081 204.821 384.344 204.482 381.761 203.601C379.224 202.738 376.923 201.295 375.04 199.388C373.158 197.481 371.745 195.161 370.916 192.613C369.119 186.634 371.054 180.247 371.207 174.005C371.364 167.763 368.4 160.297 362.203 159.525C357.484 158.936 358.068 159.393 354.677 162.727C359.42 167.996 347.857 191.333 341.653 190.302C338.145 189.719 335.564 186.933 334.87 187.03C331.317 195.731 342.004 208.07 333.528 212.121L334.157 211.289C338.594 203.96 325.466 191.58 329.902 184.25C331.139 182.2 332.425 179.796 331.66 177.528C330.934 175.371 327.256 174.689 326.48 176.652C327.741 172.153 324.219 166.872 319.542 166.413C315.387 166.003 315.626 167.188 311.664 168.268C311.158 166.561 310.429 164.929 309.495 163.413C309.811 165.143 309.85 166.911 309.61 168.653C308.181 168.823 306.736 168.517 305.499 167.782C301.84 165.589 301.731 159.927 304.244 156.481C306.762 153.034 310.98 151.333 315.049 150.045C315.086 141.44 338.24 137.32 342.499 145.321C342.937 138.843 350.362 134.479 356.759 135.579C363.155 136.68 368.202 141.809 371.278 147.526C374.354 153.239 375.881 159.635 378.133 165.72C380.385 171.805 383.604 177.873 388.996 181.483C394.388 185.089 402.401 185.416 406.903 180.743C407.929 182.738 408.471 184.948 408.485 187.192C408.499 189.436 407.983 191.652 406.981 193.659Z" fill="#2F2E41"/>
<path d="M383.835 296.819C383.368 296.446 382.862 296.125 382.325 295.863C373.691 291.565 346.841 280.41 325.846 280.868C285.45 281.749 234.041 326.332 246.006 356.272C255.11 379.053 300.371 392.014 333.41 381.648C379.695 367.126 397.964 308.085 383.835 296.819Z" fill="#3F3D56"/>
<path d="M551.534 460.941C564.734 458.451 576.418 398.982 550.448 369.693C541.55 359.658 530.452 355.291 515.688 351.226C430.715 327.832 365.905 350.128 357.196 355.572C348.506 361.003 333.271 442.84 352.752 454.424C363.713 460.941 385.438 464.2 396.202 456.596C412.04 445.407 385.455 416.385 397.288 396.85C410.716 374.682 481.424 367.215 516.873 389.246C554.694 412.751 476.682 475.063 551.534 460.941Z" fill="#F2F2F2"/>
<path d="M463.283 359.831H513.711C526.159 347.9 535.06 336.402 527.934 326.858C527.934 324.114 526.844 321.483 524.904 319.543C522.964 317.603 520.333 316.513 517.59 316.513H459.404C456.661 316.513 454.03 317.603 452.09 319.543C450.15 321.483 449.06 324.114 449.06 326.858C446.347 337.733 451.194 348.726 463.283 359.831Z" fill="#CCCCCC"/>
<path d="M472.34 303.49C472.818 303.512 473.292 303.386 473.696 303.13C474.101 302.874 474.417 302.5 474.602 302.058C474.787 301.616 474.831 301.128 474.729 300.66C474.627 300.192 474.384 299.766 474.032 299.441L473.872 298.805C473.894 298.754 473.915 298.703 473.936 298.652C474.418 297.513 475.226 296.543 476.258 295.862C477.29 295.181 478.5 294.82 479.736 294.824C480.972 294.829 482.18 295.199 483.207 295.888C484.234 296.576 485.034 297.553 485.508 298.695C487.4 303.253 489.81 307.82 490.403 312.639C490.664 314.77 490.554 316.929 490.077 319.022C494.522 309.325 496.831 298.786 496.845 288.118C496.846 285.442 496.698 282.767 496.4 280.107C496.154 277.926 495.813 275.761 495.376 273.611C492.994 261.946 487.878 251.013 480.45 241.71C476.855 239.748 473.947 236.731 472.12 233.066C471.457 231.749 470.989 230.342 470.73 228.891C471.136 228.944 472.259 222.767 471.953 222.388C472.518 221.531 473.53 221.104 474.147 220.267C477.217 216.105 481.447 216.832 483.655 222.488C488.372 224.869 488.417 228.817 485.523 232.614C483.682 235.03 483.429 238.299 481.813 240.885C481.979 241.098 482.152 241.304 482.318 241.517C485.357 245.424 488.005 249.62 490.225 254.043C489.685 249.088 490.329 244.074 492.105 239.416C493.905 235.075 497.277 231.418 500.248 227.665C503.816 223.157 511.132 225.125 511.76 230.839C511.766 230.895 511.772 230.95 511.778 231.005C511.337 231.254 510.905 231.518 510.482 231.798C509.952 232.152 509.54 232.659 509.302 233.252C509.064 233.844 509.011 234.495 509.149 235.118C509.287 235.741 509.61 236.308 510.076 236.745C510.542 237.181 511.129 237.467 511.76 237.564L511.824 237.574C511.667 239.164 511.39 240.74 510.993 242.288C514.804 257.025 506.577 262.392 494.831 262.634C494.572 262.767 494.319 262.9 494.06 263.026C496.29 269.347 497.689 275.931 498.222 282.613C498.523 286.555 498.505 290.515 498.168 294.455L498.188 294.315C499.039 289.935 501.376 285.982 504.804 283.125C509.895 278.943 517.087 277.403 522.579 274.041C523.163 273.667 523.841 273.467 524.535 273.465C525.229 273.463 525.908 273.66 526.494 274.032C527.079 274.404 527.546 274.935 527.84 275.564C528.133 276.193 528.24 276.892 528.149 277.58C528.142 277.629 528.134 277.677 528.127 277.726C527.308 278.06 526.511 278.444 525.74 278.877C525.299 279.126 524.867 279.39 524.444 279.669C523.913 280.024 523.502 280.531 523.264 281.123C523.026 281.716 522.973 282.366 523.111 282.989C523.249 283.613 523.572 284.18 524.038 284.616C524.504 285.053 525.091 285.338 525.722 285.436L525.786 285.446C525.833 285.452 525.873 285.459 525.919 285.466C524.52 288.806 522.557 291.88 520.115 294.554C517.733 307.419 507.499 308.64 496.553 304.893H496.546C495.345 310.113 493.605 315.193 491.354 320.053H472.804C472.738 319.847 472.678 319.634 472.618 319.428C474.335 319.536 476.059 319.433 477.751 319.122C476.375 317.433 474.998 315.731 473.622 314.042C473.591 314.011 473.562 313.977 473.536 313.942C472.838 313.078 472.133 312.22 471.435 311.356L471.434 311.355C471.397 308.706 471.702 306.062 472.34 303.49Z" fill="#CCCCCC"/>
<path d="M409.071 357.129C408.764 358.025 408.18 358.8 407.404 359.343C406.628 359.887 405.7 360.17 404.753 360.153L386.254 359.677C385.3 359.659 384.378 359.332 383.625 358.746C382.872 358.159 382.329 357.345 382.078 356.425L379.46 328.431C378.531 328.851 377.52 329.059 376.5 329.039C374.712 328.994 373.014 328.24 371.781 326.944C370.548 325.647 369.88 323.914 369.925 322.125C369.97 320.336 370.724 318.638 372.02 317.405C373.317 316.172 375.05 315.504 376.839 315.549C377.246 315.548 377.653 315.59 378.051 315.675C378.485 315.207 379.011 314.834 379.598 314.581C380.184 314.328 380.817 314.2 381.455 314.207L409.911 314.942C410.147 314.95 410.382 314.98 410.613 315.029C411.237 315.145 411.829 315.394 412.349 315.758C412.869 316.122 413.305 316.594 413.627 317.141C413.95 317.687 414.151 318.297 414.218 318.928C414.285 319.56 414.216 320.198 414.016 320.8L409.071 357.129ZM378.923 326.53L377.06 319.859C376.848 319.088 376.843 318.275 377.046 317.502C376.955 317.502 376.876 317.459 376.785 317.459C375.508 317.433 374.273 317.914 373.35 318.797C372.427 319.681 371.892 320.894 371.862 322.171C371.832 323.448 372.31 324.685 373.191 325.61C374.071 326.536 375.282 327.074 376.559 327.108C377.385 327.134 378.202 326.934 378.923 326.53Z" fill="#CCCCCC"/>
<path d="M410.613 315.029C410.007 318.495 403.191 320.932 394.995 320.509C387.458 320.161 381.296 317.515 380.167 314.378C380.585 314.255 381.019 314.197 381.455 314.207L409.911 314.941C410.147 314.95 410.382 314.979 410.613 315.029Z" fill="white"/>
<path d="M624.009 462.254L0.990723 462.51C0.727966 462.51 0.476013 462.405 0.290222 462.22C0.104431 462.034 0 461.782 0 461.519C0 461.256 0.104431 461.004 0.290222 460.818C0.476013 460.633 0.727966 460.528 0.990723 460.528L624.009 460.272C624.272 460.272 624.524 460.377 624.71 460.563C624.896 460.748 625 461.001 625 461.263C625 461.526 624.896 461.778 624.71 461.964C624.524 462.15 624.272 462.254 624.009 462.254Z" fill="#CACACA"/>
<path d="M274.578 240.825C276.272 240.887 277.875 241.607 279.046 242.833C280.217 244.059 280.864 245.694 280.848 247.389C280.84 247.733 280.803 248.077 280.738 248.415L300.29 259.959L297.923 271.942L272.848 253.232C271.466 252.853 270.248 252.027 269.385 250.883C268.521 249.739 268.06 248.341 268.075 246.907C268.091 246.092 268.267 245.287 268.594 244.54C268.921 243.793 269.392 243.117 269.98 242.552C270.568 241.986 271.262 241.542 272.021 241.245C272.781 240.948 273.592 240.803 274.407 240.819C274.464 240.82 274.521 240.822 274.578 240.825Z" fill="#FFB6B6"/>
<path d="M290.595 268.345C291.118 267.645 291.343 267.351 291.461 267.432C291.768 267.616 291.473 270.092 293.626 274.407C296.658 280.469 328.444 289.753 328.444 289.753L332.357 282.588L349.571 251.101L355.505 225.864C355.712 224.984 355.813 224.082 355.805 223.178C350.515 219.455 344.897 216.221 339.021 213.516C336.672 214.848 334.882 216.981 333.978 219.524L322.128 252.75L317.4 266.016C317.4 266.016 309.059 260.051 306.034 261.146C303.013 262.248 302.155 260.703 304.129 255.758C306.104 250.813 303.14 255.903 299.691 256.227C296.235 256.555 299.691 256.227 298.059 254.128C296.427 252.03 285.873 250.849 285.873 250.849L285.649 251.318L281.559 259.731L280.389 262.148C280.389 262.148 284.724 266.852 285.77 267.79C286.821 268.734 287.146 268.669 286.631 269.745C286.124 270.816 288.778 270.767 290.595 268.345Z" fill="#F9A826"/>
</g>
<defs>
<clipPath id="clip0_123_118">
<rect width="625" height="463" fill="white" transform="matrix(-1 0 0 1 625 0)"/>
</clipPath>
</defs>
</svg>
