<?xml version="1.0" standalone="no"?>
<!DOCTYPE svg PUBLIC "-//W3C//DTD SVG 20010904//EN"
 "http://www.w3.org/TR/2001/REC-SVG-20010904/DTD/svg10.dtd">
<svg version="1.0" xmlns="http://www.w3.org/2000/svg"
 width="1955.000000pt" height="1217.000000pt" viewBox="0 0 1955.000000 1217.000000"
 preserveAspectRatio="xMidYMid meet">
<metadata>
Created by potrace 1.10, written by Peter Selinger 2001-2011
</metadata>
<g transform="translate(0.000000,1217.000000) scale(0.100000,-0.100000)"
fill="#206afe" stroke="none">
<path d="M2 11193 c4 -1083 -1 -998 70 -1178 67 -167 210 -338 371 -443 365
-238 861 -188 1184 121 l62 59 -100 133 -99 132 -68 -66 c-206 -203 -483 -253
-727 -132 -230 114 -369 336 -368 586 2 323 273 585 624 602 173 9 289 -37
420 -167 71 -71 359 -455 904 -1206 184 -252 190 -260 206 -240 9 12 218 296
464 631 247 336 479 651 516 702 l68 91 -130 102 c-71 56 -134 100 -139 98 -5
-2 -180 -244 -390 -538 -209 -294 -385 -539 -389 -543 -5 -5 -180 223 -390
507 -421 567 -490 646 -665 755 -261 163 -606 182 -871 48 -69 -34 -165 -97
-184 -121 -7 -9 -17 -16 -22 -16 -5 0 -9 233 -9 530 l0 530 -170 0 -171 0 3
-977z"/>
<path d="M3739 10339 c-266 -375 -485 -688 -487 -695 -3 -14 174 -264 187
-264 8 1 1045 1427 1048 1443 2 11 -238 197 -255 197 -4 0 -226 -307 -493
-681z"/>
</g>
</svg>
